<?xml version="1.0" encoding="UTF-8" standalone="no"?>
<svg width="293px" height="237px" viewBox="0 0 293 237" version="1.1" xmlns="http://www.w3.org/2000/svg" xmlns:xlink="http://www.w3.org/1999/xlink" xmlns:sketch="http://www.bohemiancoding.com/sketch/ns">
    <!-- Generator: Sketch 3.2 (9961) - http://www.bohemiancoding.com/sketch -->
    <title>cottage</title>
    <desc>Created with Sketch.</desc>
    <defs></defs>
    <g id="Page-1" stroke="none" stroke-width="1" fill="none" fill-rule="evenodd" sketch:type="MSPage">
        <g id="flat" sketch:type="MSArtboardGroup" transform="translate(-554.000000, -766.000000)">
            <g id="cottage" sketch:type="MSLayerGroup" transform="translate(554.000000, 766.000000)">
                <circle id="sun" fill="#F3AA42" sketch:type="MSShapeGroup" cx="222" cy="45" r="45"></circle>
                <path d="M78,133 C78,133 60.920032,133 28,133 C-5,133 -13.0000016,76.9999996 28,77 C69.0000016,77.0000004 60.9999981,77 88,77 C115.000002,77 121.999998,46 88,46 C54.0000017,46 79.9833347,46 47,46 C15.9999998,46 13.9999983,10 47,10 C88.0000017,10 177.999998,10 215,10 C252.000002,10 253.999998,45 215,45 L188,45 C176.999998,45 177.999998,63 188,63 L273,63 C293.000013,63 293.000013,113 272,113 C250.999987,113 78,133 78,133 Z" id="cloud" fill="#EEEEEE" sketch:type="MSShapeGroup"></path>
                <rect id="Rectangle-175" fill="#7A6F6F" sketch:type="MSShapeGroup" x="163" y="83" width="6" height="12"></rect>
                <rect id="Rectangle-176" fill="#CB5217" sketch:type="MSShapeGroup" x="161" y="80" width="10" height="6"></rect>
                <path d="M120.5,182 C132.374122,182 142,174.164983 142,164.5 C142,154.835017 131.815789,97 120.5,97 C109.184211,97 99,154.835017 99,164.5 C99,174.164983 108.625878,182 120.5,182 Z" id="Oval-6" fill="#159775" sketch:type="MSShapeGroup"></path>
                <path d="M106.62964,177.871724 L120.5,97 C109.184211,97 99,154.835017 99,164.5 C99,169.862473 101.963251,174.661605 106.62964,177.871724 Z" id="Oval-11" fill-opacity="0.3" fill="#000000" sketch:type="MSShapeGroup"></path>
                <path d="M140.5,195 C152.374122,195 162,187.164983 162,177.5 C162,167.835017 151.815789,110 140.5,110 C129.184211,110 119,167.835017 119,177.5 C119,187.164983 128.625878,195 140.5,195 Z" id="Oval-6" fill="#24814E" sketch:type="MSShapeGroup"></path>
                <path d="M126.566523,190.828136 L140.5,110 C129.184211,110 119,167.835017 119,177.5 C119,182.838256 121.936546,187.618247 126.566523,190.828136 Z" id="Oval-12" fill-opacity="0.3" fill="#000000" sketch:type="MSShapeGroup"></path>
                <rect id="Rectangle-174" fill="#C5AA6B" sketch:type="MSShapeGroup" x="142" y="165" width="7" height="30"></rect>
                <rect id="Rectangle-173" fill="#ABB7B7" sketch:type="MSShapeGroup" x="149" y="120" width="111" height="75"></rect>
                <path d="M77.5,185 C89.3741221,185 99,177.164983 99,167.5 C99,157.835017 88.8157895,100 77.5,100 C66.1842105,100 56,157.835017 56,167.5 C56,177.164983 65.6258779,185 77.5,185 Z" id="Oval-6" fill="#24814E" sketch:type="MSShapeGroup"></path>
                <path d="M65.0374214,181.761784 L77.5,100 C66.1842105,100 56,157.835017 56,167.5 C56,173.383686 59.5672797,178.5892 65.0374214,181.761784 Z" id="Oval-10" fill-opacity="0.3" fill="#000000" sketch:type="MSShapeGroup"></path>
                <rect id="Rectangle-173" fill="#19B06C" sketch:type="MSShapeGroup" x="47" y="208" width="101" height="12" rx="27"></rect>
                <rect id="Rectangle-173" fill="#19B06C" sketch:type="MSShapeGroup" x="157" y="216" width="101" height="10" rx="27"></rect>
                <rect id="Rectangle-173" fill="#19B06C" sketch:type="MSShapeGroup" x="187" y="200" width="101" height="8" rx="27"></rect>
                <path d="M172,153 L183,153 L197,165 L157,165 L172,153 Z" id="Rectangle-167" fill="#D44645" sketch:type="MSShapeGroup"></path>
                <rect id="Rectangle-168" fill="#EEEEEE" sketch:type="MSShapeGroup" x="162" y="165" width="5" height="30"></rect>
                <rect id="Rectangle-168" fill="#EEEEEE" sketch:type="MSShapeGroup" x="187" y="165" width="5" height="30"></rect>
                <rect id="Rectangle-170" fill="#34495D" sketch:type="MSShapeGroup" x="167" y="165" width="20" height="30"></rect>
                <rect id="door" fill="#577898" sketch:type="MSShapeGroup" x="177" y="165" width="10" height="30"></rect>
                <rect id="door-handle" fill="#EEEEEE" sketch:type="MSShapeGroup" x="178" y="178" width="2" height="5"></rect>
                <path d="M48.5,188 C60.3741221,188 70,180.164983 70,170.5 C70,160.835017 59.8157895,103 48.5,103 C37.1842105,103 27,160.835017 27,170.5 C27,180.164983 36.6258779,188 48.5,188 Z" id="Oval-6" fill="#049372" sketch:type="MSShapeGroup"></path>
                <path d="M35.5618612,184.47791 L48.5,103 C37.1842105,103 27,160.835017 27,170.5 C27,176.211412 30.3614386,181.283785 35.5618612,184.47791 Z" id="Oval-8" fill-opacity="0.3" fill="#000000" sketch:type="MSShapeGroup"></path>
                <path d="M73,125 L129,125 L139,145 L63,145 L73,125 Z" id="Rectangle-148" fill="#D44645" sketch:type="MSShapeGroup"></path>
                <rect id="Rectangle-150" fill="#ABB7B7" sketch:type="MSShapeGroup" x="70" y="145" width="61" height="55"></rect>
                <path d="M80,200 L80,155 L122,155 L122,200" id="Rectangle-149" stroke="#979797" fill="#BFBFBF" sketch:type="MSShapeGroup"></path>
                <path d="M150,93 L255,93 L266,120 L139,120 L150,93 Z" id="Rectangle-155" fill="#D44645" sketch:type="MSShapeGroup"></path>
                <rect id="Rectangle-156" stroke="#EEEEEE" fill="#34495D" sketch:type="MSShapeGroup" x="157" y="130" width="25" height="20"></rect>
                <rect id="Rectangle-157" fill="#EEEEEE" sketch:type="MSShapeGroup" x="157" y="140" width="24" height="1"></rect>
                <rect id="Rectangle-158" fill="#EEEEEE" sketch:type="MSShapeGroup" transform="translate(169.916667, 140.000000) rotate(-90.000000) translate(-169.916667, -140.000000) " x="159.916667" y="139.583333" width="20" height="0.833333333"></rect>
                <rect id="window-1" stroke="#EEEEEE" fill="#34495D" sketch:type="MSShapeGroup" x="195" y="130" width="25" height="20"></rect>
                <rect id="Rectangle-157" fill="#EEEEEE" sketch:type="MSShapeGroup" x="195" y="140" width="24" height="1"></rect>
                <rect id="Rectangle-158" fill="#EEEEEE" sketch:type="MSShapeGroup" transform="translate(207.916667, 140.000000) rotate(-90.000000) translate(-207.916667, -140.000000) " x="197.916667" y="139.583333" width="20" height="0.833333333"></rect>
                <rect id="Rectangle-156" stroke="#EEEEEE" fill="#34495D" sketch:type="MSShapeGroup" x="207" y="165" width="42" height="25"></rect>
                <rect id="Rectangle-157" fill="#EEEEEE" sketch:type="MSShapeGroup" x="207" y="176.5" width="42" height="1.5"></rect>
                <path d="M220.192308,190 L220.192308,165 L221.538462,165 L221.538462,190 L220.192308,190 L220.192308,190 Z" id="Rectangle-158" fill="#EEEEEE" sketch:type="MSShapeGroup"></path>
                <path d="M234.192308,190 L234.192308,165 L235.538462,165 L235.538462,190 L234.192308,190 L234.192308,190 Z" id="Rectangle-158" fill="#EEEEEE" sketch:type="MSShapeGroup"></path>
                <rect id="window-2" stroke="#EEEEEE" fill="#34495D" sketch:type="MSShapeGroup" x="232" y="130" width="25" height="20"></rect>
                <rect id="Rectangle-157" fill="#EEEEEE" sketch:type="MSShapeGroup" x="232" y="140" width="24" height="1"></rect>
                <rect id="Rectangle-158" fill="#EEEEEE" sketch:type="MSShapeGroup" transform="translate(244.916667, 140.000000) rotate(-90.000000) translate(-244.916667, -140.000000) " x="234.916667" y="139.583333" width="20" height="0.833333333"></rect>
                <rect id="Rectangle-151" stroke="#979797" fill="#D8D8D8" sketch:type="MSShapeGroup" x="80" y="162" width="42" height="1"></rect>
                <rect id="Rectangle-151" stroke="#979797" fill="#D8D8D8" sketch:type="MSShapeGroup" x="80" y="170" width="42" height="1"></rect>
                <path d="M149,120 L260,120 L149,157 L149,120 Z" id="Path-88" fill-opacity="0.3" fill="#000000" sketch:type="MSShapeGroup"></path>
                <path d="M269.5,186 C281.374122,186 291,176.782333 291,165.411765 C291,154.041196 280.815789,86 269.5,86 C258.184211,86 248,154.041196 248,165.411765 C248,176.782333 257.625878,186 269.5,186 Z" id="Oval-6" fill="#049372" sketch:type="MSShapeGroup"></path>
                <path d="M256.776354,182.009368 L269.5,86 C258.184211,86 248,154.041196 248,165.411765 C248,172.22301 251.454054,178.26173 256.776354,182.009368 Z" id="Oval-7" fill-opacity="0.3" fill="#000000" sketch:type="MSShapeGroup"></path>
                <rect id="Rectangle-151" stroke="#979797" fill="#D8D8D8" sketch:type="MSShapeGroup" x="80" y="178" width="42" height="1"></rect>
                <rect id="Rectangle-151" stroke="#979797" fill="#D8D8D8" sketch:type="MSShapeGroup" x="80" y="186" width="42" height="1"></rect>
                <rect id="Rectangle-151" stroke="#979797" fill="#D8D8D8" sketch:type="MSShapeGroup" x="80" y="193" width="42" height="1"></rect>
                <path d="M70,191 L42,191 C31,191 28,209 42,209 L129,209 C140.999997,209 139.000003,219 129,219 C118.999997,219 117.999999,219 104,219 C90.0000013,219 89.0000026,237 104,237 L205.999997,237 C213.999997,237 214.999997,226 206,226 L179.999997,226 C171.999997,226 171.999997,216 180,216 C188.000003,216 243.000003,216 249,216 C254.999997,216 255.999997,208 248.999997,208 L231,208 C220.999997,208 220.999997,200 231,200 L287,200 C294.999997,200 294.999997,192 287,192 L258,192 L70,191 Z" id="Path-81" fill="#DADFE1" sketch:type="MSShapeGroup"></path>
                <rect id="Rectangle-142" fill="#8B572A" sketch:type="MSShapeGroup" x="47" y="178.876477" width="3" height="12.3159054"></rect>
                <path d="M55.2847947,174.116935 L57.8008064,174.89551 L49.6312209,180.890012 L47.1152092,180.111437 L55.2847947,174.116935 L55.2847947,174.116935 Z" id="Rectangle-142" fill="#8B572A" sketch:type="MSShapeGroup"></path>
                <path d="M41.5160117,174.038086 L39,174.816661 L47.1695855,180.811163 L49.6855972,180.032588 L41.5160117,174.038086 L41.5160117,174.038086 Z" id="Rectangle-142" fill="#8B572A" sketch:type="MSShapeGroup"></path>
                <g id="Rectangle-142-+-Rectangle-142-+-Rectangle-142" transform="translate(259.000000, 167.000000)" fill="#8B572A" sketch:type="MSShapeGroup">
                    <rect id="Rectangle-142" x="9" y="7.05128205" width="3" height="17.9487179"></rect>
                    <path d="M17.2847947,0.108863898 L19.8008064,1.18380936 L11.6312209,9.46016365 L9.1152092,8.38521819 L17.2847947,0.108863898 L17.2847947,0.108863898 Z" id="Rectangle-142"></path>
                    <path d="M3.5160117,7.46069873e-14 L1,1.07494546 L9.16958553,9.35129975 L11.6855972,8.27635429 L3.5160117,7.46069873e-14 L3.5160117,7.46069873e-14 Z" id="Rectangle-142"></path>
                </g>
                <path d="M63,145 L73,125 L122,125 L63,145 Z" id="Path-85" fill-opacity="0.3" fill="#080808" sketch:type="MSShapeGroup"></path>
                <path d="M70,145 L131,145 L70,154 L70,145 Z" id="Path-86" fill-opacity="0.3" fill="#000000" sketch:type="MSShapeGroup"></path>
                <path d="M80,155 L122,155 L80,161 L80,155 Z" id="Path-87" fill-opacity="0.3" fill="#000000" sketch:type="MSShapeGroup"></path>
                <path d="M161,80 L170,80 L161,84 L161,80 Z" id="Path-88" fill-opacity="0.3" fill="#000000" sketch:type="MSShapeGroup"></path>
                <path d="M150,93 L243,93 L139,120 L150,93 Z" id="Path-88" fill-opacity="0.3" fill="#000000" sketch:type="MSShapeGroup"></path>
                <path d="M172,153 L179,153 L157,165 L172,153 Z" id="Path-88" fill-opacity="0.3" fill="#000000" sketch:type="MSShapeGroup"></path>
                <path d="M162,165 L167,165 L162,170 L162,165 Z" id="Path-88" fill-opacity="0.3" fill="#000000" sketch:type="MSShapeGroup"></path>
                <path d="M187,165 L192,165 L187,170 L187,165 Z" id="Path-88" fill-opacity="0.3" fill="#000000" sketch:type="MSShapeGroup"></path>
                <path d="M167,165 L187,165 L167,185 L167,165 Z" id="Path-88" fill-opacity="0.3" fill="#000000" sketch:type="MSShapeGroup"></path>
                <path d="M163,86 L169,86 L163,92 L163,86 Z" id="Path-88" fill-opacity="0.3" fill="#000000" sketch:type="MSShapeGroup"></path>
            </g>
        </g>
    </g>
</svg>